<svg width="17" height="16" viewBox="0 0 17 16" fill="none" xmlns="http://www.w3.org/2000/svg">
<path d="M8.47945 11.4673C8.13023 11.4673 7.8309 11.3176 7.63135 11.0682L2.69243 5.53062C2.3931 5.13152 2.44299 4.53286 2.84209 4.23353C3.24119 3.9342 3.78996 3.9342 4.08929 4.33331L8.37967 9.22234C8.42956 9.27223 8.47945 9.27223 8.57922 9.22234L12.8696 4.33331C13.2188 3.9342 13.7676 3.88432 14.1667 4.23353C14.5658 4.58275 14.6157 5.13152 14.2665 5.53062C14.2665 5.53062 14.2665 5.53062 14.2166 5.58051L9.32754 11.1181C9.12799 11.3176 8.77877 11.4673 8.47945 11.4673Z" fill="#5E616B"/>
</svg>
